<mxfile host="65bd71144e">
    <diagram id="Z9SwLti5Ql5IbUdMFjgX" name="Page-1">
        <mxGraphModel dx="648" dy="621" grid="1" gridSize="10" guides="1" tooltips="1" connect="1" arrows="1" fold="1" page="1" pageScale="1" pageWidth="850" pageHeight="1100" background="#333333" math="0" shadow="0">
            <root>
                <mxCell id="0"/>
                <mxCell id="1" parent="0"/>
                <mxCell id="2" value="" style="rounded=0;whiteSpace=wrap;html=1;" vertex="1" parent="1">
                    <mxGeometry x="120" width="610" height="80" as="geometry"/>
                </mxCell>
                <mxCell id="3" value="1" style="ellipse;whiteSpace=wrap;html=1;" vertex="1" parent="1">
                    <mxGeometry x="150" y="160" width="120" height="110" as="geometry"/>
                </mxCell>
                <mxCell id="4" value="2" style="ellipse;whiteSpace=wrap;html=1;" vertex="1" parent="1">
                    <mxGeometry x="360" y="160" width="120" height="110" as="geometry"/>
                </mxCell>
                <mxCell id="5" value="3" style="ellipse;whiteSpace=wrap;html=1;" vertex="1" parent="1">
                    <mxGeometry x="570" y="160" width="120" height="110" as="geometry"/>
                </mxCell>
                <mxCell id="6" value="" style="rounded=1;whiteSpace=wrap;html=1;fillColor=#d5e8d4;strokeColor=#82b366;" vertex="1" parent="1">
                    <mxGeometry x="250" y="310" width="320" height="220" as="geometry"/>
                </mxCell>
                <mxCell id="10" value="" style="shape=singleArrow;whiteSpace=wrap;html=1;" vertex="1" parent="1">
                    <mxGeometry x="550" y="390" width="100" height="60" as="geometry"/>
                </mxCell>
                <mxCell id="11" value="" style="shape=singleArrow;direction=west;whiteSpace=wrap;html=1;" vertex="1" parent="1">
                    <mxGeometry x="170" y="390" width="100" height="60" as="geometry"/>
                </mxCell>
            </root>
        </mxGraphModel>
    </diagram>
</mxfile>